# AST/ASF file generated using VICON BodyLanguage
# -----------------------------------------------
:version 1.10
:name VICON
:units
  mass 1.0
  length 0.45
  angle deg
:documentation
   .ast/.asf automatically generated from VICON data using
   VICON BodyBuilder and BodyLanguage model FoxedUp or BRILLIANT.MOD
:root
   order TX TY TZ RX RY RZ
   axis XYZ
   position 0 0 0  
   orientation 0 0 0 
:bonedata
  begin
     id 1 
     name lhipjoint
     direction 0.630305 -0.712092 0.309259 
     length 2.29033 
     axis 0 0 0  XYZ
  end
  begin
     id 2 
     name lfemur
     direction 0.34202 -0.939693 0  
     length 6.43538  
     axis 0 0 20  XYZ
    dof rx ry rz
    limits (-160.0 20.0)
           (-70.0 70.0)
           (-60.0 70.0)
  end
  begin
     id 3 
     name ltibia
     direction 0.34202 -0.939693 0   
     length 7.43097   
     axis 0 0 20   XYZ
    dof rx
    limits (-10.0 170.0)
  end
  begin
     id 4 
     name lfoot
     direction 0.0334653 -0.0919451 0.995202   
     length 1.78438   
     axis -90 7.62852e-016 20   XYZ
    dof rx rz
    limits (-45.0 90.0)
           (-70.0 20.0)
  end
  begin
     id 5 
     name ltoes
     direction 1.53535e-011 -4.21933e-011 1   
     length 0.90832   
     axis -90 7.62852e-016 20   XYZ
    dof rx
    limits (-90.0 20.0)
  end
  begin
     id 6 
     name rhipjoint
     direction -0.682059 -0.67077 0.291312   
     length 2.43143  
     axis 0 0 0  XYZ 
  end
  begin
     id 7 
     name rfemur
     direction -0.34202 -0.939693 0   
     length 6.63488   
     axis 0 0 -20   XYZ
    dof rx ry rz
    limits (-160.0 20.0)
           (-70.0 70.0)
           (-70.0 60.0)
  end
  begin
     id 8 
     name rtibia
     direction -0.34202 -0.939693 0   
     length 6.86532   
     axis 0 0 -20   XYZ
    dof rx
    limits (-10.0 170.0)
 end
 begin
     id 9 
     name rfoot
     direction -0.105199 -0.289033 0.951521   
     length 1.77126  
     axis -90 -7.62852e-016 -20   XYZ
    dof rx rz
    limits (-45.0 90.0)
           (-20.0 70.0)
  end
  begin
     id 10 
     name rtoes
     direction -1.53551e-011 -4.21978e-011 1   
     length 0.889273   
     axis -90 -7.62852e-016 -20   XYZ
    dof rx
    limits (-90.0 20.0)
  end
  begin
     id 11 
     name lowerback
     direction -0.0514305 0.998089 0.034245   
     length 2.02077   
     axis 0 0 0   XYZ
    dof rx ry rz
    limits (-20.0 45.0)
           (-30.0 30.0)
           (-30.0 30.0)
  end
  begin
     id 12 
     name upperback
     direction 0.0203189 0.999449 -0.0262315   
     length 2.01413   
     axis 0 0 0   XYZ
    dof rx ry rz
    limits (-20.0 45.0)
           (-30.0 30.0)
           (-30.0 30.0)
  end
  begin
     id 13 
     name thorax
     direction 0.0452736 0.998142 -0.0407729   
     length 2.02986   
     axis 0 0 0   XYZ
    dof rx ry rz
    limits (-20.0 45.0)
           (-30.0 30.0)
           (-30.0 30.0)
  end
  begin
     id 14 
     name lowerneck
     direction -0.0180464 0.999645 -0.0195774   
     length 1.59034   
     axis 0 0 0   XYZ
    dof rx ry rz
    limits (-20.0 45.0)
           (-30.0 30.0)
           (-30.0 30.0)
  end
  begin
     id 15 
     name upperneck
     direction 0.0732272 0.979935 -0.18538   
     length 1.57486   
     axis 0 0 0   XYZ
    dof rx ry rz
    limits (-20.0 45.0)
           (-30.0 30.0)
           (-30.0 30.0)
  end
  begin
     id 16
     name head
     direction 0.0252963 0.997909 -0.059472  
     length 1.60334  
     axis 0 0 0   XYZ
    dof rx ry rz
    limits (-20.0 45.0)
           (-30.0 30.0)
           (-30.0 30.0)
  end
  begin
     id 17 
     name lclavicle
     direction 0.943819 0.330449 0.00315172  
     length 3.50322  
     axis 0 0 0   XYZ
    dof ry rz
    limits (-20.0 10.0)
           (0.0 20.0)
  end
  begin
     id 18 
     name lhumerus
     direction 1 -4.48949e-011 2.22502e-028   
     length 4.63208   
     axis 180 -30 -90   XYZ
    dof rx ry rz
    limits (-60.0 90.0)
           (-90.0 90.0)
           (-90.0 90.0)
  end
  begin
     id 19
     name lradius
     direction 1 -4.48967e-011 -4.10197e-027   
     length 3.41924   
     axis 180 -30 -90   XYZ
    dof rx
    limits (-10.0 170.0)
  end
  begin
     id 20
     name lwrist
     direction 1 -4.48987e-011 -1.24264e-027   
     length 1.70962   
     axis 2.50585e-015 90 90   XYZ
    dof ry
    limits (-180.0 0.0)
 end
  begin
     id 21 
     name lhand
     direction 1 -4.48983e-011 -2.48528e-027   
     length 0.62537   
     axis 1.58582e-015 90 90   XYZ
    dof rx rz
    limits (-90.0 90.0)
           (-45.0 45.0)
  end
  begin
     id 22 
     name lfingers
     direction 1 -4.48896e-011 -4.97056e-027   
     length 0.50419   
     axis 3.17164e-015 90 90   XYZ
    dof rx
    limits (0.0 90.0)
  end
  begin
     id 23
     name lthumb
     direction 0.707107 -6.34803e-011 0.707107   
     length 0.723919   
     axis -90 45 2.85299e-015   XYZ
    dof rx rz
    limits (-45.0 45.0)
           (-45.0 45.0)
  end
  begin
     id 24 
     name rclavicle
     direction -0.964499 0.260664 -0.0423695   
     length 3.91997  
     axis 0 0 0   XYZ 
    dof ry rz
    limits (-10.0 20.0)
           (-20.0 0.0)
  end
  begin
     id 25 
     name rhumerus
     direction -1 -4.48957e-011 -1.98656e-027  
     length 4.4064   
     axis 180 30 90   XYZ
    dof rx ry rz
    limits (-90.0 60.0)
           (-90.0 90.0)
           (-90.0 90.0)
  end
  begin
     id 26 
     name rradius
     direction -1 -4.48968e-011 1.96972e-027   
     length 3.44675   
     axis 180 30 90   XYZ
    dof rx
    limits (-10.0 170.0)
  end
  begin
     id 27 
     name rwrist
     direction -1 -4.48974e-011 -1.24264e-027   
     length 1.72338   
     axis 2.50585e-015 -90 -90   XYZ
    dof ry
    limits (-180.0 0.0)
  end
  begin
     id 28
     name rhand
     direction -1 -4.48901e-011 -2.48528e-027   
     length 0.513674   
     axis 1.58582e-015 -90 -90   XYZ
    dof rx rz
    limits (-90.0 90.0)
           (-45.0 45.0)
  end
  begin
     id 29
     name rfingers
     direction -1 -4.48946e-011 -4.97056e-027   
     length 0.414137   
     axis 3.17164e-015 -90 -90   XYZ
    dof rx
    limits (0.0 90.0)
  end
  begin
     id 30
     name rthumb
     direction -0.707107 -6.34859e-011 0.707107   
     length 0.59462   
     axis -90 -45 -2.85299e-015   XYZ
    dof rx rz
    limits (-45.0 45.0)
           (-45.0 45.0)
  end
:hierarchy
  begin
    root lhipjoint rhipjoint lowerback
    lhipjoint lfemur
    lfemur ltibia
    ltibia lfoot
    lfoot ltoes
    rhipjoint rfemur
    rfemur rtibia
    rtibia rfoot
    rfoot rtoes
    lowerback upperback
    upperback thorax
    thorax lowerneck lclavicle rclavicle
    lowerneck upperneck
    upperneck head
    lclavicle lhumerus
    lhumerus lradius
    lradius lwrist
    lwrist lhand lthumb
    lhand lfingers
    rclavicle rhumerus
    rhumerus rradius
    rradius rwrist
    rwrist rhand rthumb
    rhand rfingers
  end

#!OML:ASF E:\inclinewalkrobotboard\Project 1\Capture day 1\Session 1\subject1.ASF
:FULLY-SPECIFIED
:DEGREES
1
root 9.96661 16.5657 6.56456 -170.503 -78.2782 -176.41
lowerback -9.33173 1.63892 -10.768
upperback -2.1405 2.96426 4.82153
thorax 2.1433 1.42473 11.6548
lowerneck -10.8499 1.4133 -2.89676
upperneck 19.4319 1.69568 2.7601
head 7.71912 0.760625 1.54393
rclavicle 8.64713e-015 0
rhumerus -36.7373 -4.09868 -83.122
rradius 106.154
rwrist -3.37762
rhand -18.4654 -25.1618
rfingers 7.12502
rthumb 7.82111 -54.9971
lclavicle 8.64713e-015 0
lhumerus -31.8393 6.25657 85.6159
lradius 101.13
lwrist 0.0507257
lhand -49.1665 -42.254
lfingers 7.12502
lthumb -21.7889 -13.4605
rfemur -19.865 2.96789 10.3683
rtibia 22.0561
rfoot -15.7824 3.39085
rtoes -39.7505
lfemur -8.30454 -12.4483 -10.7415
ltibia 6.29213
lfoot -17.1958 16.7649
ltoes -29.3426
2
root 9.99463 16.5616 6.59471 -169.925 -77.8977 -177.02
lowerback -9.21078 2.07729 -9.82989
upperback -2.15672 3.49883 3.665
thorax 2.05527 1.7044 9.84077
lowerneck -10.7495 1.05658 -1.74354
upperneck 19.7292 0.799511 3.4861
head 7.8292 0.477664 1.50599
rclavicle 6.4605e-015 9.54166e-015
rhumerus -36.8907 -5.65555 -85.2495
rradius 105.052
rwrist -2.36773
rhand -18.5355 -24.3163
rfingers 7.12502
rthumb 7.75353 -54.1542
lclavicle 6.4605e-015 9.54166e-015
lhumerus -32.0088 4.16163 84.313
lradius 100.896
lwrist 0.427177
lhand -49.8842 -42.6358
lfingers 7.12502
lthumb -22.478 -13.9239
rfemur -21.042 3.52784 9.66235
rtibia 24.2142
rfoot -16.8305 4.67497
rtoes -37.7098
lfemur -8.09756 -11.9465 -10.9637
ltibia 5.87416
lfoot -17.1519 16.5817
ltoes -64.8074
3
root 10.0165 16.5686 6.6139 -169.072 -77.9314 -178.54
lowerback -8.40667 2.49695 -9.03454
upperback -2.07668 3.96693 2.4629
thorax 1.73386 1.95731 8.05603
lowerneck -10.7917 0.637085 -0.739667
upperneck 20.416 -0.205192 4.26328
head 8.09796 0.138581 1.50244
rclavicle -1.2424e-014 -7.55382e-015
rhumerus -37.2205 -7.54461 -87.2431
rradius 104.032
rwrist -1.01022
rhand -18.1827 -23.9003
rfingers 7.12502
rthumb 8.09401 -53.7253
lclavicle -1.2424e-014 -7.55382e-015
lhumerus -32.2939 1.92531 83.0426
lradius 100.414
lwrist 0.716509
lhand -50.5426 -43.031
lfingers 7.12502
lthumb -23.1098 -14.397
rfemur -20.9868 4.15967 8.79532
rtibia 25.8896
rfoot -19.0475 2.80841
rtoes -33.4845
lfemur -7.22224 -11.8803 -11.5253
ltibia 5.35782
lfoot -17.0328 16.2477
ltoes -65.8406
4
root 10.0323 16.5843 6.62357 -167.591 -78.3709 -181.366
lowerback -6.89253 2.90383 -8.36466
upperback -1.87088 4.375 1.18765
thorax 1.18526 2.18191 6.2493
lowerneck -11.0093 0.168609 0.182447
upperneck 21.4851 -1.33833 5.0953
head 8.53706 -0.249951 1.51902
rclavicle 4.91557e-014 1.00386e-014
rhumerus -37.7456 -9.69398 -89.027
rradius 103.074
rwrist 0.629949
rhand -18.0318 -24.5323
rfingers 7.12502
rthumb 8.23961 -54.3516
lclavicle 4.91557e-014 1.00386e-014
lhumerus -32.5485 -0.494209 81.8958
lradius 99.5802
lwrist 0.934562
lhand -51.1563 -42.9298
lfingers 7.12502
lthumb -23.6985 -14.3707
rfemur -19.6041 5.03845 7.71823
rtibia 26.9392
rfoot -21.2771 -2.49141
rtoes -35.6227
lfemur -5.70064 -12.1161 -12.5091
ltibia 4.85753
lfoot -16.5123 16.0265
ltoes -66.313
5
root 10.0529 16.606 6.6221 -165.942 -79.2002 -184.548
lowerback -5.04337 2.59884 -6.90208
upperback -1.52186 3.77209 -0.20827
thorax 0.816828 1.88031 3.84707
lowerneck -11.4169 0.0888415 0.870607
upperneck 22.5858 -1.8974 5.79266
head 9.01499 -0.383128 1.5891
rclavicle -3.03644e-014 5.1684e-015
rhumerus -37.8364 -10.1915 -91.9744
rradius 102.029
rwrist 1.96201
rhand -19.7318 -27.9832
rfingers 7.12502
rthumb 6.59874 -57.8603
lclavicle -3.03644e-014 5.1684e-015
lhumerus -32.7547 -1.17362 79.8097
lradius 98.5952
lwrist 1.53003
lhand -51.544 -42.3873
lfingers 7.12502
lthumb -24.0703 -13.877
rfemur -17.3756 4.99326 6.83577
rtibia 27.0002
rfoot -22.3999 -6.95393
rtoes -34.6754
lfemur -4.2892 -11.8715 -13.3561
ltibia 4.70548
lfoot -15.8591 15.0176
ltoes -66.8795
6
root 10.0457 16.593 6.62318 -163.393 -79.6875 -187.222
lowerback -5.41018 0.587074 -7.87086
upperback -1.03038 1.1813 1.40147
thorax 1.77659 0.541405 5.97101
lowerneck -13.0523 1.23728 -3.15028
upperneck 24.7602 0.476713 5.85769
head 9.97674 0.408302 2.62338
rclavicle 3.926e-015 9.93923e-015
rhumerus -37.3837 -4.07379 -92.1316
rradius 100.331
rwrist 1.63917
rhand -21.2964 -28.6503
rfingers 7.12502
rthumb 5.08819 -58.5692
lclavicle 3.926e-015 9.93923e-015
lhumerus -33.9509 4.93364 80.5157
lradius 97.7313
lwrist 1.77786
lhand -51.9411 -41.5476
lfingers 7.12502
lthumb -24.451 -13.0881
rfemur -16.3736 5.0861 5.90256
rtibia 26.2372
rfoot -22.1023 -11.3842
rtoes -34.6115
lfemur -4.31556 -11.5272 -13.7818
ltibia 4.70289
lfoot -15.566 14.2042
ltoes -67.0546
7
root 10.0317 16.5812 6.62007 -160.429 -80.3615 -190.343
lowerback -5.6424 0.409386 -7.90538
upperback -0.981933 0.970867 1.23974
thorax 1.99352 0.425093 5.81186
lowerneck -13.3528 0.973538 -3.56027
upperneck 26.3128 0.0377701 5.96719
head 10.6223 0.153347 2.71778
rclavicle -1.08338e-014 -9.34288e-015
rhumerus -38.22 -4.268 -92.3067
rradius 99.5676
rwrist 1.45878
rhand -21.6458 -29.242
rfingers 7.12502
rthumb 4.75078 -59.1687
lclavicle -1.08338e-014 -9.34288e-015
lhumerus -33.9927 4.73059 80.9525
lradius 96.4302
lwrist 2.84356
lhand -52.3658 -40.0033
lfingers 7.12502
lthumb -24.8581 -11.5994
rfemur -15.0159 5.15637 4.94869
rtibia 24.7036
rfoot -18.9938 -12.8486
rtoes -25.9175
lfemur -4.43111 -11.5563 -14.2341
ltibia 4.90466
lfoot -15.3521 13.4922
ltoes -67.1838
8
root 10.0128 16.567 6.60467 -158.299 -81.1164 -192.474
lowerback -6.08073 0.343711 -7.71123
upperback -0.969706 0.910841 1.06981
thorax 2.26748 0.38402 5.52644
lowerneck -13.3841 0.60825 -3.72703
upperneck 27.5991 -0.60158 6.04157
head 11.1481 -0.176623 2.72061
rclavicle -1.06101e-014 1.63003e-014
rhumerus -39.2776 -4.71711 -92.3031
rradius 99.144
rwrist 0.923378
rhand -21.4646 -29.5613
rfingers 7.12502
rthumb 4.92574 -59.4841
lclavicle -1.06101e-014 1.63003e-014
lhumerus -34.1884 4.35173 81.505
lradius 95.596
lwrist 4.30344
lhand -52.5614 -38.21
lfingers 7.12502
lthumb -25.0456 -9.83209
rfemur -13.5691 5.59121 4.33166
rtibia 22.5261
rfoot -15.4959 -13.5867
rtoes -29.3019
lfemur -4.77559 -11.6012 -14.2999
ltibia 5.26311
lfoot -15.236 12.7354
ltoes -67.2927
9
root 9.98853 16.5504 6.57614 -156.65 -81.8393 -193.954
lowerback -6.76323 0.214723 -7.75228
upperback -0.957504 0.79387 1.19452
thorax 2.67784 0.306444 5.68424
lowerneck -13.5545 0.337283 -4.17589
upperneck 29.0058 -1.00412 5.98953
head 11.7507 -0.443712 2.75925
rclavicle 2.23881e-014 -2.38542e-015
rhumerus -40.4093 -4.78604 -91.9456
rradius 99.0223
rwrist -0.0714408
rhand -21.2003 -29.8818
rfingers 7.12502
rthumb 5.18093 -59.7984
lclavicle 2.23881e-014 -2.38542e-015
lhumerus -34.6462 4.55544 82.3668
lradius 95.2216
lwrist 6.13916
lhand -52.649 -36.6581
lfingers 7.12502
lthumb -25.1295 -8.29199
rfemur -12.2119 6.13176 3.99107
rtibia 20.1864
rfoot -13.8032 -13.2826
rtoes -32.5187
lfemur -5.27313 -11.5142 -14.1099
ltibia 5.65552
lfoot -15.1737 11.9466
ltoes -67.4035
10
root 9.96613 16.5285 6.53784 -154.193 -82.4185 -196.177
lowerback -7.51443 0.0959312 -8.19462
upperback -0.925639 0.72481 1.45783
thorax 3.13349 0.244125 6.22275
lowerneck -13.7515 0.0873928 -4.50425
upperneck 30.268 -1.27997 5.5892
head 12.3122 -0.68307 2.65631
rclavicle 5.2181e-015 6.55989e-015
rhumerus -41.4569 -4.6857 -91.3764
rradius 99.0797
rwrist -1.14212
rhand -20.9659 -31.2728
rfingers 7.12502
rthumb 5.40727 -61.1839
lclavicle 5.2181e-015 6.55989e-015
lhumerus -35.1948 5.06477 83.3928
lradius 95.1666
lwrist 7.93235
lhand -52.9182 -35.7692
lfingers 7.12502
lthumb -25.3874 -7.43947
rfemur -11.0435 6.13081 3.65048
rtibia 18.1632
rfoot -13.6905 -12.8236
rtoes -36.1619
lfemur -5.82802 -11.4082 -13.9915
ltibia 6.0551
lfoot -15.1329 11.2807
ltoes -67.4976
11
root 9.953 16.5053 6.48875 -149.17 -82.6029 -201.098
lowerback -8.01514 0.0876323 -8.87805
upperback -0.884428 0.820451 1.37544
thorax 3.43291 0.266907 6.54497
lowerneck -13.7991 -0.13013 -4.66736
upperneck 31.2799 -1.63748 5.48784
head 12.7614 -0.903345 2.61577
rclavicle 8.34896e-015 -9.93923e-015
rhumerus -42.3737 -4.83515 -91.1601
rradius 99.2093
rwrist -2.0969
rhand -22.2044 -31.5319
rfingers 7.12502
rthumb 4.21137 -61.47
lclavicle 8.34896e-015 -9.93923e-015
lhumerus -35.7614 5.4086 83.9761
lradius 95.265
lwrist 9.21269
lhand -53.217 -35.3905
lfingers 7.12502
lthumb -25.6736 -7.10169
rfemur -9.90679 5.84304 2.91857
rtibia 16.3831
rfoot -13.7759 -12.7669
rtoes -39.192
lfemur -6.23965 -11.2833 -14.3501
ltibia 6.45892
lfoot -15.1099 10.7625
ltoes -67.6021
12
root 9.94878 16.4856 6.43572 -143.404 -82.4587 -206.966
lowerback -8.16482 0.0786353 -9.50779
upperback -0.816657 0.893387 1.05182
thorax 3.57121 0.285965 6.57019
lowerneck -13.656 -0.23264 -4.71255
upperneck 32.0231 -1.89372 5.51435
head 13.06 -1.0473 2.61012
rclavicle -9.93923e-017 -1.64991e-014
rhumerus -43.0703 -4.87477 -91.2263
rradius 99.3007
rwrist -2.83303
rhand -22.7973 -31.9565
rfingers 7.12502
rthumb 3.63886 -61.9051
lclavicle -9.93923e-017 -1.64991e-014
lhumerus -36.3035 6.00938 84.0184
lradius 95.2653
lwrist 9.72604
lhand -53.3464 -35.613
lfingers 7.12502
lthumb -25.7975 -7.34219
rfemur -8.54859 5.84084 2.04953
rtibia 14.3922
rfoot -13.9607 -12.8053
rtoes -38.5161
lfemur -6.39159 -11.0507 -14.9983
ltibia 6.80897
lfoot -15.0427 10.2662
ltoes -67.7552
13
root 9.95194 16.4655 6.38946 -140.476 -82.4982 -209.971
lowerback -8.21347 0.0787215 -9.49664
upperback -0.745335 0.910877 0.776008
thorax 3.67551 0.288223 6.27303
lowerneck -13.4911 -0.251781 -4.65529
upperneck 32.6815 -2.05897 5.55845
head 13.3161 -1.13492 2.60468
rclavicle 1.49089e-016 -8.15017e-015
rhumerus -43.4774 -4.87653 -91.3716
rradius 99.2398
rwrist -2.94755
rhand -22.7578 -32.5834
rfingers 7.12502
rthumb 3.67697 -62.5315
lclavicle 1.49089e-016 -8.15017e-015
lhumerus -36.824 6.76455 83.8408
lradius 95.1054
lwrist 9.47788
lhand -53.7848 -36.0632
lfingers 7.12502
lthumb -26.2173 -7.85405
rfemur -7.16513 5.72801 1.81443
rtibia 12.1514
rfoot -13.6176 -13.0677
rtoes -41.6815
lfemur -6.55497 -11.1198 -15.1704
ltibia 7.13708
lfoot -15.0144 10.0757
ltoes -67.8818
